<?xml version="1.0" standalone="no"?>
<!DOCTYPE svg PUBLIC "-//W3C//DTD SVG 20010904//EN"
 "http://www.w3.org/TR/2001/REC-SVG-20010904/DTD/svg10.dtd">
<svg version="1.0" xmlns="http://www.w3.org/2000/svg"
 width="260.000000pt" height="260.000000pt" viewBox="0 0 260.000000 260.000000"
 preserveAspectRatio="xMidYMid meet">
<metadata>
Created by potrace 1.11, written by Peter Selinger 2001-2013
</metadata>
<g transform="translate(0.000000,260.000000) scale(0.100000,-0.100000)"
fill="#000000" stroke="none">
<path d="M1271 2127 c-92 -234 -590 -1402 -611 -1433 -33 -47 -81 -81 -129
-90 -28 -6 -31 -10 -31 -45 l0 -39 270 0 270 0 0 40 c0 40 0 40 -37 40 -102 0
-173 47 -173 113 0 34 56 228 92 320 20 52 45 57 298 57 264 0 291 -6 315 -64
42 -99 125 -342 125 -363 0 -28 -36 -46 -110 -57 -101 -15 -100 -15 -100 -52
l0 -34 330 0 330 0 0 35 c0 32 -3 35 -42 45 -93 24 -109 32 -133 68 -13 21
-150 355 -304 743 -278 698 -281 705 -316 722 -35 17 -36 16 -44 -6z m135
-734 c56 -144 65 -175 54 -188 -19 -23 -421 -22 -445 1 -10 10 -13 24 -9 38 6
21 222 544 232 560 5 9 25 -41 168 -411z"/>
</g>
</svg>
